<?xml version="1.0" encoding="utf-8"?>
<!-- Generator: Adobe Illustrator 27.3.1, SVG Export Plug-In . SVG Version: 6.00 Build 0)  -->
<svg version="1.1" id="Layer_1" xmlns="http://www.w3.org/2000/svg" xmlns:xlink="http://www.w3.org/1999/xlink" x="0px" y="0px"
	 viewBox="0 0 500 500" style="enable-background:new 0 0 500 500;" xml:space="preserve">
<style type="text/css">
	.st0{fill:#FFFFFF;}
	.st1{fill:#FE712D;}
	.st2{fill:#0A1524;}
	.st3{fill-rule:evenodd;clip-rule:evenodd;fill:#FE712D;}
	.st4{fill-rule:evenodd;clip-rule:evenodd;fill:#FFFFFF;}
	.st5{fill-rule:evenodd;clip-rule:evenodd;fill:#0A1524;}
	.st6{fill:#131313;}
	.st7{fill:#949494;}
	.st8{fill-rule:evenodd;clip-rule:evenodd;fill:#949494;}
	.st9{fill:none;}
	.st10{fill:#FFFFFF;stroke:#231F20;stroke-width:0.25;stroke-miterlimit:10;}
</style>
<rect width="500" height="500"/>
<g>
	<g>
		<path class="st0" d="M297.4,182.8v5.2h-7.6v19.6h-5.8v-43.2h14.3v5.2h-8.5v13.1H297.4z"/>
		<path class="st0" d="M316,207.7h-13.7v-43.2h5.8v37.9h7.9V207.7z"/>
		<path class="st0" d="M326.5,207.7h-5.8v-15.9l-7.1-27.3h5.7l4.3,18.8h0.2l3.9-18.8h5.7l-7,27.3V207.7z"/>
		<path class="st0" d="M284.1,221.6h15.1c5.9,0,8.8,3.3,8.8,9.9v14.2c0,5.1-1.5,8.2-4.6,9.6l5.4,24h-7.3l-5.1-23.3h-4.7v23.3h-7.7
			V221.6z M291.8,249.4h5.1c2.3,0,3.5-1.4,3.5-4.2v-12.4c0-2.8-1.1-4.2-3.5-4.2h-5.1V249.4z"/>
		<path class="st0" d="M323.3,279.3c-6.2,0-9.3-3.3-9.3-9.8v-38c0-6.6,3.1-9.9,9.2-9.9h7.4c6.2,0,9.2,3.3,9.2,9.9v38
			c0,6.5-3.1,9.8-9.3,9.8H323.3z M329.1,272.3c2,0,3.1-1.1,3.1-3.4V232c0-2.2-1.1-3.4-3.5-3.4h-3.6c-2.2,0-3.4,1.1-3.4,3.4v36.9
			c0,2.2,1.1,3.4,3.5,3.4H329.1z"/>
		<path class="st0" d="M369.8,265.8v3.7c0,6.5-3.1,9.8-9.2,9.8h-5c-6.2,0-9.2-3.3-9.2-9.8v-38.1c0-6.5,3.1-9.8,9.2-9.8h5
			c6.2,0,9.2,3.3,9.2,9.8v6.5h-7.7V232c0-2.2-1.1-3.4-3.5-3.4h-1.5c-2,0-3.1,1.1-3.1,3.4v36.9c0,2.2,1,3.4,3.1,3.4h1.9
			c2,0,3.1-1.1,3.1-3.4v-3.1H369.8z"/>
		<path class="st0" d="M383.5,279.3h-7.7v-57.7h7.7V279.3z M401.2,279.3h-7.7l-9.6-28.2v-0.5l8-29h7.1l-8.1,28.7L401.2,279.3z"/>
		<path class="st0" d="M405.7,279.3v-57.7h19.1v7h-11.4v17.5h10.1v7h-10.1v19.2h11.4v7H405.7z"/>
		<path class="st0" d="M442.6,228.6v50.7h-7.7v-50.7h-7.4v-7H450v7H442.6z"/>
		<path class="st0" d="M295.8,318.7l5.4-25.4h6.4v43.2h-5.8l0.6-28.3l-4.3,20.4h-4.4l-4.3-20.4l0.6,28.3h-5.8v-43.2h6.4L295.8,318.7
			z"/>
		<path class="st0" d="M312.9,336.5v-43.2h14.3v5.2h-8.5v13.1h7.6v5.2h-7.6v14.4h8.5v5.2H312.9z"/>
		<path class="st0" d="M331.4,336.5v-43.2h10c5.4,0,8.1,2.8,8.1,8.3v28.6c0,4.1-2.3,6.3-6.9,6.3H331.4z M337.2,331.2h4.3
			c1.5,0,2.3-0.7,2.3-1.9v-27.7c0-2.1-0.8-3.1-2.6-3.1h-4V331.2z"/>
		<path class="st0" d="M354.7,336.5v-43.2h5.8v43.2H354.7z"/>
		<path class="st0" d="M371.3,336.5h-5.8v-35.8c0-4.9,2.3-7.4,6.9-7.4h4.3c4.6,0,6.9,2.5,6.9,7.4v35.8h-5.8v-15.8h-6.6V336.5z
			 M377.9,315.4V301c0-1.7-0.8-2.5-2.5-2.5h-1.6c-1.7,0-2.5,0.8-2.5,2.5v14.4H377.9z"/>
	</g>
	<path class="st0" d="M231.2,198.9c-5.5,5.5-14.3,5.5-19.8,0c-5.5-5.5-5.5-14.3,0-19.8c5.5-5.5,14.3-5.5,19.8,0
		C236.7,184.6,236.7,193.5,231.2,198.9z"/>
	<path class="st0" d="M154.4,205.2c-6.3-0.5-12.5,1.3-18.2,4.8l3.1-9c1.9-5.4,6.5-9.4,12-10.3c3.6-0.6,11.2-0.6,17.2-0.3
		c2,0.1,3.1,2.3,2.1,4l-2.1,3.6C165.7,202.8,160.2,205.6,154.4,205.2z"/>
	<g>
		<g>
			<path class="st0" d="M268,142.4c0.5,0.5,0.8,1.1,0.9,1.7c2.7,19.4-7.4,63.6-43.5,89.3c-0.7,0.6-1.1,1.4-1.1,2.3
				c0.1,8,1.4,17.3,0.2,24c-1.3,7.4-6.5,13.4-13.6,15.9l-16.5,5.7c-0.8,0.3-1.8-0.1-2.4-0.7c-0.8-0.8-1.1-2-0.2-3.1
				c7.2-8.5,10.7-16.9,7.8-25.5c-0.1-0.4-0.3-0.7-0.6-0.9c-0.7-0.7-1.8-0.9-2.8-0.4c-0.7,0.4-1.6,1-2.7,1.7
				c-2.7,1.8-3.5,1.6-5.2,0.8c-3.3-1.5-11.6-6.2-18.3-12.8c-6.7-6.7-11.3-15.1-12.8-18.3c-0.8-1.7-1-2.6,0.8-5.2
				c0.7-1.1,1.3-2,1.7-2.7c0.5-0.9,0.3-2.1-0.4-2.8c-0.2-0.2-0.5-0.4-0.9-0.6c-8.6-2.9-17,0.6-25.5,7.8c-1.1,0.9-2.3,0.6-3.1-0.2
				c-0.7-0.7-1-1.6-0.7-2.4l5.7-16.5c2.4-7.1,8.5-12.3,15.9-13.6c6.7-1.2,16,0.2,24,0.2c0.9,0,1.8-0.4,2.3-1.1
				c25.7-36.1,69.9-46.2,89.3-43.5C266.9,141.6,267.5,141.9,268,142.4 M269.1,141.3c-0.7-0.7-1.6-1.2-2.6-1.3
				c-21.7-3-65.6,8.9-90.7,44c-0.3,0.3-0.7,0.5-1.1,0.5c-2.7,0-5.6-0.2-8.4-0.4c-5.6-0.3-11.3-0.7-15.9,0.1
				c-7.9,1.3-14.4,6.9-17.1,14.6l-5.7,16.5c-0.5,1.3,0,2.9,1.1,4c1.5,1.5,3.6,1.6,5.2,0.3c9-7.6,16.6-10,24-7.5
				c0.1,0,0.2,0.1,0.3,0.2c0.2,0.2,0.3,0.6,0.1,0.9c-0.3,0.6-0.9,1.4-1.6,2.6c-2.1,3-1.9,4.5-0.9,6.8c0.5,1.1,5.2,10.9,13.1,18.8
				c7.9,7.9,17.7,12.6,18.8,13.1c2.3,1.1,3.7,1.2,6.8-0.9c1.2-0.8,2-1.3,2.6-1.6c0.4-0.2,0.7-0.1,0.9,0.1c0.1,0.1,0.1,0.2,0.2,0.3
				c2.5,7.3,0.1,15-7.5,24c-1.3,1.6-1.2,3.7,0.3,5.2c1.1,1.1,2.7,1.6,4,1.1l16.5-5.7c7.7-2.6,13.3-9.2,14.6-17.1
				c0.8-4.6,0.5-10.3,0.1-15.9c-0.2-2.8-0.3-5.7-0.4-8.4c0-0.4,0.2-0.8,0.5-1.1c35.2-25.1,47.1-69,44-90.7
				C270.2,142.9,269.8,142,269.1,141.3L269.1,141.3z"/>
		</g>
	</g>
	<path class="st0" d="M222.2,207.6c2.3-0.1,3.4,2.6,1.7,4.1c-4.9,4.1-10,7.8-15.3,11.2c-3.9,2.5-7.9,5.1-11.9,7.4
		c-3.7,2.1-7.8,4.4-12.2,4.7c0,0-3.9,0.4-6.8-2.4c-2.9-2.7-6.4-7.3-6.4-7.3c-4.1-5.3-3.3-11.4-0.9-17.1c3.2-7.6,6.4-15.3,11.3-22
		c4.9-6.6,10.8-12.5,17.2-17.7c11.6-9.3,25.3-16.1,39.7-19.9c4.7-1.3,9.5-2.2,14.4-2.7c0.7-0.1,5.6-0.5,9.2-0.3
		c1.4,0.1,2.4,1.3,2.2,2.7c-1.5,8.1-9.2,25.6-20,41.1c-1.3,1.8-4.1,0.9-4.2-1.3c-0.4-8.4-6.4-16.7-18.2-18.4c-0.2,0-0.5,0-0.7,0
		c-18.8,2.7-23.1,22.1-12.8,32.4C212,206.1,217.1,207.9,222.2,207.6z"/>
	<g>
		<line class="st4" x1="225.6" y1="178.2" x2="225.6" y2="178.1"/>
	</g>
	<path class="st0" d="M166.8,221.8c-0.4-0.9-1.5-1.3-2.3-0.6c-0.3,0.3-0.5,0.6-0.7,0.9c-0.8,1.6-0.7,3.5,0.2,5.1
		c2.1,4,5.2,8.2,8.3,11.3c1.4,1.3,3.8,0.9,4.3-0.9c0,0,0,0,0-0.1c0.4-1.3-0.1-2.7-1.1-3.7C172.3,230.6,169.2,226.5,166.8,221.8z"/>
	<path class="st0" d="M197.2,147.3v9.1c-8.9,6.3-17.2,14-24.2,23.5c-2.1-0.1-4.3-0.2-6.5-0.3c-5.8-0.4-11.8-0.7-16.9,0.2
		c-9.6,1.6-17.5,8.4-20.7,17.7l-5.6,16.5c-1.1,3-0.2,6.5,2.2,8.9c3.2,3.2,8,3.5,11.5,0.6c6.3-5.3,10.9-7.1,14.5-7.4
		c-1.3,3-1.2,5.6,0.2,8.7c-23.5,2.6-13.9,42.9-3.4,71.9l-2.1,0.2c-2.5,0.2-4.8,0.8-7,2l-1.1,0.6c-2.3-1.1-4.8-1.9-7.3-2.2
		c-0.1-0.3-0.3-0.6-0.4-0.9c-4.2-8.5-12.8-13.8-22.3-13.8c-9.2,0-17.7,5.2-22,13.2c-4.8,0.7-9.3,3.2-12.4,7.1
		c-3.7,4.6-5.1,10.6-3.8,16.5c2,9.3,10.5,15.7,20,15.1c0.9,2.8,2.6,5.4,4.8,7.5l0.3,0.3H57.7c-4.3,0-7.7-3.5-7.7-7.7v-187
		c0-4.3,3.5-7.7,7.7-7.7h131.8C193.8,139.5,197.2,143,197.2,147.3z"/>
	<path class="st0" d="M171.6,253.9c-10.8,4.9-9.9,40.2-9.6,46.8v0.1c0.1,4,0.2,7.4,0.8,10.5c0.1,0.7-0.2,1.8-0.7,2.3
		c-0.6,0.5-1.1,0.8-1.6,1c-0.7,0.3-1.5,0-1.7-0.7c-0.8-2.2-2.2-6.7-3.9-11.6c-18.8-56-10-65.6-3.1-71.9c1-0.9,2.6-0.7,3.3,0.5
		c2.4,4,6,9.2,10.7,13.9c2.1,2.1,4.2,3.9,6.4,5.6C173.2,251.2,173.1,253.2,171.6,253.9z"/>
	<path class="st0" d="M197.2,286.9v2.5c-2.9,2-5.4,4.5-7.3,7.5c0,0,0,0,0,0l-1.3-0.9c-4.7-3.4-10.2-5.3-15.9-5.4h-0.5
		c-0.9,0-1.8,0-2.7,0.1l-3.7,0.4c1.2-13.3,2.2-34.6,14.3-35.3c3,1.8,5.2,2.8,5.7,3.1c3.1,1.5,5.8,1.6,8.7,0.3
		c-0.3,3.5-2,8.1-7.4,14.5c-2.9,3.4-2.6,8.2,0.6,11.5c1.7,1.7,4,2.6,6.2,2.6c0.9,0,1.8-0.2,2.6-0.5L197.2,286.9z"/>
	<path class="st0" d="M150,301.1c0.8,0.3,5.1,16.1,7.3,19.7h2.1c0.2-0.3,0.3-0.6,0.5-0.9c1.4-2,3.3-3.6,5.5-4.7
		c-0.7-3.8-0.3-13.5-0.1-17.5c0.1-2,2.4-2.2,3.9-2.4c2.6-0.3,5.3-0.2,7.9,0.3c2.1,0.4,4.1,1.2,6,2.2c1,0.5,1.9,1.1,2.8,1.8
		c-7.9,1.6-14.4,7.2-17.3,14.6c0.8-0.2,1.7-0.2,2.6-0.2c0.5,0,1,0,1.5,0.1c2.6-6.5,8.5-11.3,15.7-12.4c1-0.2,2.1-0.2,3.1-0.2
		c0.4,0,0.8,0,1.2,0c5.4,0.3,10.3,2.7,13.7,6.5c0.3,0.4,0.9,0.4,1.3,0.1c0,0,0,0,0,0c0.2-0.2,0.3-0.4,0.3-0.7c0-0.2-0.1-0.4-0.2-0.6
		l-0.1-0.1c-3.6-3.8-8.4-6.5-13.8-7.2c3.1-4.8,8-8.4,13.8-9.6c1.4-0.3,2.8-0.4,4.2-0.4c10.9,0,20,8.2,21.2,18.8
		c0.7-0.1,1.5-0.2,2.2-0.2c6.7,0,12,5.6,11.6,12.4c-0.4,6.2-5.8,10.9-12,10.9h-8.1c-1.3,6.1-6.7,10.7-13.2,10.7H106.9
		c-3.6,0-6.8-1.4-9.2-3.6c-2.5-2.4-4.2-5.7-4.3-9.5c0-0.1,0-0.3,0-0.4c0-2.1,0.5-4.1,1.3-5.9c0.5-1.1,1.2-2.1,2-3.1
		c0.6-0.7,0.7-1.8,0.1-2.5c-0.1-0.1-0.1-0.1-0.2-0.2c-0.7-0.8-2-0.9-2.8-0.1c-0.8,0.8-1.5,1.8-2.1,2.8c-1.1,2-1.8,4.3-1.8,6.7
		c0,1.2,0.2,2.3,0.4,3.4c-0.3,0-0.5,0.1-0.8,0.1c-7.3,0.5-13.8-4.3-15.4-11.5c-2.1-9.6,5.2-18.2,14.5-18.2c0.1,0,0.2,0,0.3,0
		c2.9-7.6,10.3-13,18.9-13c7.9,0,14.8,4.6,18.1,11.2c0.5,1,1,2.1,1.3,3.3c4.1,0,7.8,1.3,11,3.4c4.9,3.2,8.3,8.5,9,14.6
		c0.1,0.8,0.8,1.4,1.6,1.4c0.9,0,1.7-0.8,1.6-1.7c-0.2-1.8-0.6-3.6-1.2-5.2c-1.5-4.4-4.4-8.2-8.1-11
		C143.4,301.8,148.9,300.7,150,301.1z"/>
	<path class="st0" d="M267.8,360.5H53.1c-1.7,0-3.1-1.4-3.1-3.1v-8.7c0-1.7,1.4-3.1,3.1-3.1h214.7c1.7,0,3.1,1.4,3.1,3.1v8.7
		C270.9,359.1,269.5,360.5,267.8,360.5z"/>
</g>
</svg>
